<svg xmlns="http://www.w3.org/2000/svg" xmlns:xlink="http://www.w3.org/1999/xlink" width="0" height="0" style="position:absolute">
    <defs>
      
        <svg id="icon" data-name="Layer 1" viewBox="0 0 17.04 10.65" width="17.04" height="10.65" y="0"><defs><style>.cls-1{fill:#d2a66b}</style></defs><title>icon</title><path class="cls-1" d="M277.1 241.54h-10.65a1.07 1.07 0 0 1 0-2.13h10.65a1.07 1.07 0 0 1 0 2.13zm-14.91 0a1.07 1.07 0 1 1 1.06-1.07 1.06 1.06 0 0 1-1.06 1.07zm14.91 4.26h-10.65a1.07 1.07 0 0 1 0-2.13h10.65a1.07 1.07 0 1 1 0 2.13zm-14.91 0a1.07 1.07 0 1 1 1.06-1.06 1.06 1.06 0 0 1-1.06 1.06zm14.91 4.26h-10.65a1.06 1.06 0 0 1 0-2.13h10.65a1.06 1.06 0 1 1 0 2.13zm-14.91 0a1.06 1.06 0 1 1 1.06-1.07 1.06 1.06 0 0 1-1.06 1.07z" transform="translate(-261.12 -239.4)"></path></svg>
      
        <svg id="man2" data-name="Layer 1" viewBox="0 0 17.61 15.58" width="17.61" height="15.58" y="11"><defs><style>.cls-1{fill:#ca944b;fill-rule:evenodd}</style></defs><title>man2</title><path class="cls-1" d="M593.71 520.75a3.86 3.86 0 1 1 3.85-3.86 3.86 3.86 0 0 1-3.85 3.86zm.55-4.41l-3.14-4.56a4.48 4.48 0 0 1-1.21 1.8v.15a5 5 0 0 0 .61 6.94h-10.54s-.08-2.19.4-2.65 1-1.29 3.52-1.66 2.61-1.72 2.7-1.68c0-.51-.06-1.22-.06-1.22a3.39 3.39 0 0 1-1.39-1.68c-.82-.33-.71-.54-.79-1 0 0 .09-1.73.65-1.69 0 0 .45 0 .36-.4a6.52 6.52 0 0 1 0-1.24c0-.44.23-1.63 1.16-1.8s.21-.09.52-.13-.19-.22.38-.22l.92-.19c.57 0 .94.8 1.25.84s.11-.14.74 0c.93.17.66 1.44.7 1.87a2.46 2.46 0 0 1 0 1c-.09.4.67.35.67.35.66 0 .38 1.69.38 1.69-.1.45-.34.5-1 .89z" transform="translate(-579.96 -505.17)"></path></svg>
      
        <svg id="search1" data-name="Layer 1" viewBox="0 0 17.08 17.08" width="17.08" height="17.08" y="27"><defs><style>.cls-1{fill:#cb944c}</style></defs><title>search1</title><path class="cls-1" d="M150.36 444.45a6.39 6.39 0 1 1 6.39-6.39 6.39 6.39 0 0 1-6.39 6.39zm0-10.65a4.26 4.26 0 1 0 4.26 4.26 4.27 4.27 0 0 0-4.26-4.26zm-8.52 15l-2.17-2.17 4.2-4.2a17.58 17.58 0 0 0 2.17 2.17l-4.2 4.2z" transform="translate(-139.67 -431.67)"></path></svg>
      
        <svg id="yes" data-name="Layer 1" viewBox="0 0 14.46 10.68" width="14.46" height="10.68" y="45"><defs><style>.cls-1{fill:#fff}</style></defs><title>yes</title><path class="cls-1" d="M5.93 10.68l8.53-8.51L12.31 0 5.88 6.42 2.17 2.63 0 4.82l5.93 5.86z"></path></svg>
      
  </defs>
</svg>
