<svg id="Layer_1" data-name="Layer 1" xmlns="http://www.w3.org/2000/svg" viewBox="0 0 17.04 10.65"><defs><style>.cls-1{fill:#d2a66b}</style></defs><title>icon</title><path class="cls-1" d="M277.1 241.54h-10.65a1.07 1.07 0 0 1 0-2.13h10.65a1.07 1.07 0 0 1 0 2.13zm-14.91 0a1.07 1.07 0 1 1 1.06-1.07 1.06 1.06 0 0 1-1.06 1.07zm14.91 4.26h-10.65a1.07 1.07 0 0 1 0-2.13h10.65a1.07 1.07 0 1 1 0 2.13zm-14.91 0a1.07 1.07 0 1 1 1.06-1.06 1.06 1.06 0 0 1-1.06 1.06zm14.91 4.26h-10.65a1.06 1.06 0 0 1 0-2.13h10.65a1.06 1.06 0 1 1 0 2.13zm-14.91 0a1.06 1.06 0 1 1 1.06-1.07 1.06 1.06 0 0 1-1.06 1.07z" transform="translate(-261.12 -239.4)"/></svg>